<?xml version="1.0" encoding="utf-8"?>
<!-- Generator: Adobe Illustrator 17.1.0, SVG Export Plug-In . SVG Version: 6.00 Build 0)  -->
<!DOCTYPE svg PUBLIC "-//W3C//DTD SVG 1.1//EN" "http://www.w3.org/Graphics/SVG/1.1/DTD/svg11.dtd">
<svg version="1.1" id="Layer_1" xmlns="http://www.w3.org/2000/svg" xmlns:xlink="http://www.w3.org/1999/xlink" x="0px" y="0px"
	 viewBox="0 0 253.1 67.6" enable-background="new 0 0 253.1 67.6" xml:space="preserve">
<g>
	<g>
		<path d="M38.3,49.3c0,0,2.9-9.1,12-10.4s17.6,3.8,19.8,5s9.8,6,10.3,8.3c-1.5-0.1-5.6-0.2-12,4.5s-10.1,9-17.6,6.8
			c-7.5-2.2-9.7-6.8-9.7-6.8s-0.3-0.2-0.9,0.1c-0.6,0.3-3.6,1.9-4.6,2.6s-2.8,2.3-3.6,2.1c0,0-1.1-0.3-1.4-1.1
			c-0.3-0.8-0.4-1.4-0.1-1.6c0.2-0.2,4-3,6-3.9s13.5-6.1,31.5-4.3C63,47.7,56.1,46,48.5,46.8C41,47.7,39,49,38.3,49.3z"/>
		<path d="M37.6,43.6c0,0,7.5-10.5,1.3-21.5S20.4,6.2,17.3,4.9S2.9-0.7,0,0.6c1.4,1.5,4.8,5.9,5,16.6c0.2,10.7-1.4,18.2,7.1,24.4
			s15.3,4.9,15.3,4.9s0.5,0.1,0.6,1c0.2,0.8,0.9,5.4,1,7.1c0.1,1.7-0.2,4.9,0.6,5.6c0,0,1.2,0.9,2.4,0.6c1.1-0.3,1.8-0.7,1.8-1.2
			s-0.1-6.7-0.7-9.7c-0.6-3-4.5-19.5-21.2-37.3c7.2,3.2,14.8,9.3,20.1,18.1S37.3,42.7,37.6,43.6z"/>
	</g>
	<g>
		<path d="M100.7,44.9h15.9v6.4H92.5V8.7h8.3V44.9z"/>
		<path d="M133.2,51.9c-4.2,0-7.4-1.4-9.7-4.3S120,41,120,36.4v-1.2c0-4.8,1.1-8.7,3.3-11.7c2.2-3,5.3-4.5,9.4-4.5
			c3.7,0,6.6,1.3,8.6,3.8c2,2.6,3,6,3,10.4v4.5h-16c0.1,2.3,0.7,4.2,1.6,5.6s2.4,2.1,4.3,2.1c1.6,0,3-0.2,4.1-0.6s2.3-1,3.6-1.8
			l2.1,5.2c-1.1,1-2.7,1.9-4.6,2.6S135.4,51.9,133.2,51.9z M132.7,25.5c-1.4,0-2.4,0.6-3.1,1.8c-0.7,1.2-1.1,2.9-1.3,5h7.9v-0.7
			c0-1.9-0.3-3.4-0.8-4.5C134.8,26.1,133.9,25.5,132.7,25.5z"/>
		<path d="M164.3,51.3c-0.3-0.7-0.6-1.5-0.8-2.3s-0.4-1.7-0.5-2.5c-0.7,1.6-1.6,2.9-2.8,3.9s-2.5,1.5-4.2,1.5
			c-2.9,0-5.1-0.8-6.7-2.5s-2.3-4-2.3-7c0-3.1,1-5.5,3.1-7.2c2-1.7,5.1-2.6,9.2-2.6h3.6v-2.6c0-1.6-0.3-2.8-0.9-3.6
			s-1.5-1.3-2.6-1.3c-1,0-1.8,0.3-2.3,1c-0.5,0.7-0.8,1.7-0.8,2.9l-8,0l-0.1-0.2c-0.1-2.7,0.9-5.1,3.1-7c2.2-1.9,5-2.9,8.6-2.9
			c3.3,0,6,1,8.1,2.9c2.1,1.9,3.1,4.6,3.1,8.2v13c0,1.5,0.1,2.9,0.3,4.2s0.5,2.7,1,4H164.3z M158.3,45.8c1.1,0,2.1-0.3,2.9-1
			s1.4-1.5,1.8-2.4v-5h-3.6c-1.4,0-2.4,0.5-3,1.3c-0.6,0.9-1,2-1,3.4c0,1.1,0.3,2,0.8,2.7S157.4,45.8,158.3,45.8z"/>
		<path d="M178.4,51.3V25.5h-4v-5.9h4v-3.6c0-3.5,0.9-6.3,2.8-8.2C183,6,185.6,5,189,5c0.6,0,1.3,0.1,1.9,0.2
			c0.6,0.1,1.4,0.3,2.2,0.5l-0.6,6.2c-0.4-0.1-0.8-0.2-1.2-0.2s-0.8-0.1-1.3-0.1c-1.1,0-1.9,0.4-2.5,1.2s-0.8,1.9-0.8,3.4v3.6h5.1
			v5.9h-5.1v25.8H178.4z"/>
		<path d="M203.9,51.3h-8.3V5.6h8.3V51.3z"/>
		<path d="M221.9,51.9c-4.2,0-7.4-1.4-9.7-4.3s-3.5-6.6-3.5-11.2v-1.2c0-4.8,1.1-8.7,3.3-11.7c2.2-3,5.3-4.5,9.4-4.5
			c3.7,0,6.6,1.3,8.6,3.8c2,2.6,3,6,3,10.4v4.5h-16c0.1,2.3,0.7,4.2,1.6,5.6s2.4,2.1,4.3,2.1c1.6,0,3-0.2,4.1-0.6s2.3-1,3.6-1.8
			l2.1,5.2c-1.1,1-2.7,1.9-4.6,2.6S224.1,51.9,221.9,51.9z M221.4,25.5c-1.4,0-2.4,0.6-3.1,1.8c-0.7,1.2-1.1,2.9-1.3,5h7.9v-0.7
			c0-1.9-0.3-3.4-0.8-4.5C223.6,26.1,222.7,25.5,221.4,25.5z"/>
		<path d="M246.9,11.7v7.9h4.3v5.9h-4.3v16.1c0,1.3,0.2,2.3,0.6,2.9s0.9,0.8,1.6,0.8c0.4,0,0.7,0,1-0.1s0.6-0.1,0.9-0.2l0.6,6.1
			c-0.8,0.3-1.5,0.5-2.2,0.6s-1.5,0.2-2.4,0.2c-2.7,0-4.8-0.8-6.2-2.5s-2.2-4.2-2.2-7.8V25.5h-3.8v-5.9h3.8v-7.9H246.9z"/>
	</g>
</g>
<g>
</g>
<g>
</g>
<g>
</g>
<g>
</g>
<g>
</g>
<g>
</g>
</svg>
